HIERARCHY
ROOT root     
{
	OFFSET 0.0000 0.0000 0.0000
	CHANNELS 6 Xposition Yposition Zposition Zrotation Yrotation Xrotation
	JOINT pelvis   
	{
		OFFSET 0.0000 0.0000 0.0000
		CHANNELS 3 Zrotation Yrotation Xrotation
		JOINT thorax   
		{
			OFFSET 0.0000 23.0750 -5.0000
			CHANNELS 3 Zrotation Yrotation Xrotation
			JOINT rclavicle
			{
				OFFSET 0.0000 28.0009 0.0000
				CHANNELS 3 Zrotation Yrotation Xrotation
				JOINT rhumerus 
				{
					OFFSET -18.5725 5.5939 0.0000
					CHANNELS 3 Zrotation Yrotation Xrotation
					JOINT rradius  
					{
						OFFSET -24.8459 0.0000 0.0000
						CHANNELS 3 Zrotation Yrotation Xrotation
						JOINT rhand    
						{
							OFFSET -24.5477 0.0000 0.0000
							CHANNELS 3 Zrotation Yrotation Xrotation
							End Site
							{
								OFFSET -8.1826 0.0000 0.0000
							}
						}
					}
				}
			}
			JOINT lclavicle
			{
				OFFSET 0.0000 28.0009 0.0000
				CHANNELS 3 Zrotation Yrotation Xrotation
				JOINT lhumerus 
				{
					OFFSET 18.5725 5.5939 0.0000
					CHANNELS 3 Zrotation Yrotation Xrotation
					JOINT lradius  
					{
						OFFSET 24.8459 0.0000 0.0000
						CHANNELS 3 Zrotation Yrotation Xrotation
						JOINT lhand    
						{
							OFFSET 24.5477 0.0000 0.0000
							CHANNELS 3 Zrotation Yrotation Xrotation
							End Site
							{
								OFFSET 8.1826 0.0000 0.0000
							}
						}
					}
				}
			}
			JOINT head     
			{
				OFFSET 0.0000 35.2030 0.0000
				CHANNELS 3 Zrotation Yrotation Xrotation
				End Site
				{
					OFFSET 0.0000 11.7343 0.0000
				}
			}
		}
		JOINT rfemur   
		{
			OFFSET -8.2817 0.0000 0.0000
			CHANNELS 3 Zrotation Yrotation Xrotation
			JOINT rtibia   
			{
				OFFSET 0.0000 -43.3627 0.0000
				CHANNELS 3 Zrotation Yrotation Xrotation
				JOINT rfoot    
				{
					OFFSET 0.0000 -38.2947 0.0000
					CHANNELS 3 Zrotation Yrotation Xrotation
					JOINT rtoes    
					{
						OFFSET 0.0000 0.0000 16.6054
						CHANNELS 3 Zrotation Yrotation Xrotation
						End Site
						{
							OFFSET 0.0000 0.0000 5.5351
						}
					}
				}
			}
		}
		JOINT lfemur   
		{
			OFFSET 8.2817 0.0000 0.0000
			CHANNELS 3 Zrotation Yrotation Xrotation
			JOINT ltibia   
			{
				OFFSET 0.0000 -43.3627 0.0000
				CHANNELS 3 Zrotation Yrotation Xrotation
				JOINT lfoot    
				{
					OFFSET 0.0000 -38.2947 0.0000
					CHANNELS 3 Zrotation Yrotation Xrotation
					JOINT ltoes    
					{
						OFFSET 0.0000 0.0000 16.6054
						CHANNELS 3 Zrotation Yrotation Xrotation
						End Site
						{
							OFFSET 0.0000 0.0000 5.5351
						}
					}
				}
			}
		}
	}
}
MOTION
Frames: 23
Frame Time: .0333333
-62.706 86.06 2.4802 67.4602 85.9118 90.0299 0 -0 0 5.14883 -10.8061 -9.99371 24.0367 -14.1772 3.50564e-05 58.0952 -5.61346 11.6273 -6.91317e-07 69.4159 -9.98105e-07 2.43866 3.77734 0.080403 -15.9938 15.4194 -3.87334e-05 -35.169 -1.08792 28.4618 -180 -67.2901 180 1.29716 1.37171 0.015501 -10.6714 9.02339 -3.27863 0.838434 -7.13719 -39.2624 -0 -0 21.5231 -2.9838e-07 -0.740101 10.3998 -0.133602 -2.83958e-07 -39.9367 -3.41486 2.09913 2.45798 -0 -0 18.2128 -1.06021e-05 -7.90901 29.0649 -3.861 -3.06991e-06 -68.6403 
-61.458 85.654 2.5757 64.4463 85.6361 86.9691 0 -0 0 5.12583 -10.6805 -10.0186 24.1478 -13.9712 -0.000190711 57.819 -5.33672 11.5515 -0 68.3206 -0 2.07791 3.76004 0.0682007 -16.5464 15.4231 -3.91072e-05 -34.6069 -1.33823 27.8176 -180 -67.4263 180 1.53743 0.928705 0.0124994 -12.1046 8.85143 -3.72782 0.440175 -6.55352 -40.0173 -0 -0 24.6986 2.29236e-06 -1.49358 8.34427 -0.2168 -2.70321e-07 -35.8543 -3.447 2.37435 2.7039 -0 -0 19.2246 -2.89771e-05 -8.44525 28.949 -4.1106 1.29076e-05 -66.3994 
-60.216 85.278 2.6753 62.852 85.4301 85.2634 0 -0 0 5.13301 -10.6264 -9.93129 24.2514 -13.7414 -0.000119411 57.5684 -4.94495 11.4849 -0 67.1163 -0 1.61234 3.76153 0.052902 -17.0497 15.4016 -0.000101283 -34.3537 -1.55976 27.2261 -180 -67.8142 180 1.87484 0.527204 0.0085997 -13.5298 8.6398 -4.20363 0.112346 -6.1299 -40.5915 -0 -0 27.902 1.8898e-06 -2.12178 6.17942 -0.228507 -1.08576e-06 -32.3992 -3.39167 2.62358 2.86226 -0 -0 20.4473 6.977e-05 -8.88153 28.8058 -4.30602 1.63029e-05 -63.6464 
-58.984 84.946 2.7843 62.5007 85.3315 84.7452 0 -0 0 5.2031 -10.6481 -9.74399 24.3412 -13.4934 7.4668e-05 57.3479 -4.43908 11.4258 -0 65.8133 -0 1.05591 3.77641 0.0348008 -17.5014 15.3512 3.4735e-05 -34.4233 -1.75142 26.7169 -180 -68.4624 180 2.31369 0.200997 0.00409996 -14.9336 8.38355 -4.69053 -0.111456 -5.86214 -40.919 -0 -0 30.8884 1.21411e-06 -2.62869 4.09057 -0.187603 -1.33906e-06 -29.9884 -3.21552 2.87475 2.90287 -0 -0 21.8914 -5.67056e-06 -9.18431 28.6292 -4.42995 1.4984e-05 -60.4996 
-57.769 84.667 2.9053 63.332 85.3566 85.3747 0 -0 0 5.35466 -10.7416 -9.48196 24.413 -13.2274 0.000118546 57.1593 -3.83878 11.3643 -0 64.437 -0 0.435207 3.7965 0.0144004 -17.9054 15.272 5.2187e-05 -34.8078 -1.9184 26.3087 -180 -69.3718 180 2.85282 -0.0232005 -0.000600029 -16.302 8.07879 -5.16861 -0.202965 -5.75575 -40.983 -0 -0 33.4876 -4.4988e-07 -3.01213 2.1943 -0.115399 8.47657e-07 -28.7796 -2.90466 3.13881 2.79505 -0 -0 23.544 2.08251e-05 -9.30453 28.4181 -4.45826 2.06895e-05 -57.1686 
-56.577 84.448 3.0388 65.3843 85.5065 87.2156 0 -0 0 5.59065 -10.8955 -9.17722 24.4643 -12.95 1.49778e-05 57.0042 -3.16463 11.2994 -8.02197e-07 63.0186 -4.91772e-07 -0.222405 3.81463 -0.0074001 -18.265 15.1649 -2.94121e-05 -35.4814 -2.06606 26.0093 -180 -70.5399 180 3.48421 -0.127905 -0.00390013 -17.6133 7.72549 -5.61477 -0.150373 -5.80943 -40.7944 -0 -0 35.5949 1.23204e-07 -3.27964 0.562095 -0.0322001 -1.84624e-07 -28.7692 -2.46335 3.41764 2.51239 -0 -0 25.3779 -9.05661e-06 -9.19092 28.1699 -4.36813 5.01819e-05 -53.9061 
-55.413 84.294 3.1829 68.8134 85.7455 90.443 0 -0 0 5.89306 -11.0932 -8.85897 24.4916 -12.6675 -5.23105e-05 56.886 -2.44495 11.2307 -0 61.5994 -0 -0.886214 3.82462 -0.0296008 -18.5831 15.0288 3.34362e-05 -36.3968 -2.20272 25.8193 -180 -71.9562 180 4.1943 -0.1054 -0.00390002 -18.8484 7.32578 -6.00676 0.0390644 -6.01892 -40.384 -0 -0 37.1701 -5.76968e-08 -3.4426 -0.781484 0.0470006 2.58083e-07 -29.7619 -1.91761 3.70137 2.04356 -0 -0 27.3508 -3.31168e-05 -8.79564 27.8852 -4.13901 1.46414e-05 -50.9651 
-54.277 84.203 3.3343 73.8727 86.02 95.3271 0 -0 0 6.22952 -11.3112 -8.55034 24.4962 -12.3846 -3.20611e-05 56.8074 -1.71042 11.1619 -0 60.2184 -0 -1.52652 3.82271 -0.0509003 -18.8619 14.8673 -7.97437e-05 -37.4993 -2.33743 25.7296 -180 -73.6009 180 4.96328 0.0416001 0.00179993 -19.9813 6.88724 -6.32429 0.341083 -6.36807 -39.793 -0 -0 38.2163 -1.5522e-07 -3.52035 -1.84094 0.1132 -1.15508e-08 -31.4382 -1.30805 3.97783 1.39096 -0 -0 29.4047 4.14849e-05 -8.08662 27.5541 -3.76034 -2.71857e-05 -48.5532 
-53.169 84.171 3.489 80.7042 86.301 102.016 0 -0 0 6.56062 -11.528 -8.26769 24.4772 -12.1093 7.39768e-05 56.7677 -0.990504 11.1003 -5.75035e-07 58.9153 -1.01813e-06 -2.11657 3.80886 -0.0703977 -19.1037 14.6852 5.53212e-05 -38.7265 -2.47728 25.7269 -180 -75.4518 180 5.76498 0.300504 0.0151005 -20.9957 6.41987 -6.55396 0.719554 -6.82823 -39.061 -0 -0 38.7768 1.09937e-06 -3.54044 -2.6364 0.163102 1.25306e-06 -33.4286 -0.681294 4.23795 0.567388 -0 -0 31.4865 2.49312e-05 -7.05463 27.1613 -3.23332 1.69332e-05 -46.7919 
-52.086 84.194 3.6431 89.1223 86.5215 110.332 0 -0 0 6.84593 -11.7142 -8.01984 24.4338 -11.8477 0.00013743 56.7703 -0.310102 11.0587 -5.45759e-07 57.7269 -9.90149e-07 -2.63569 3.78614 -0.0871004 -19.315 14.4895 0.000161592 -40.0157 -2.62735 25.7945 -180 -77.4872 180 6.5673 0.650203 0.0373003 -21.8805 5.93785 -6.68808 1.13291 -7.35802 -38.2257 -0 -0 38.9115 -1.97685e-06 -3.53389 -3.19613 0.197302 7.32045e-07 -35.3733 -0.0842996 4.47968 -0.407897 -0 -0 33.5437 -5.40104e-05 -5.71806 26.6823 -2.5744 2.19333e-05 -45.6853 
-51.026 84.263 3.7932 98.4052 86.6312 119.553 0 -0 0 7.05148 -11.8478 -7.81156 24.3646 -11.6048 -1.83666e-06 56.8128 0.312029 11.0516 -0 56.678 -0 -3.06897 3.75986 -0.100802 -19.5019 14.2895 -0.000128112 -41.3054 -2.7882 25.9118 -180 -79.6745 180 7.33499 1.0619 0.0680996 -22.626 5.45784 -6.72679 1.53919 -7.90748 -37.3197 -0 -0 38.6996 5.32823e-07 -3.53364 -3.54767 0.218902 1.72469e-06 -37.0161 0.441703 4.7062 -1.51391 -0 -0 35.5312 2.11613e-05 -4.12079 26.0885 -1.81468 1.40959e-05 -45.1683 
-49.987 84.372 3.9363 107.296 86.626 128.427 0 -0 0 7.1515 -11.9055 -7.64322 24.2689 -11.3787 -8.37491e-05 56.8924 0.860994 11.0913 -5.02457e-07 55.7933 -9.49103e-07 -3.40595 3.737 -0.111098 -19.6701 14.0904 7.71344e-05 -42.5511 -2.95276 26.0592 -180 -81.966 180 8.03233 1.5014 0.1054 -23.2328 4.99739 -6.67807 1.90131 -8.42306 -36.3732 -0 -0 38.2208 -1.8485e-06 -3.5682 -3.71659 0.231596 -9.94196e-07 -38.1991 0.864293 4.92495 -2.73069 -0 -0 37.4134 5.91338e-06 -2.32884 25.3562 -0.9978 -7.96755e-06 -45.0671 
-48.966 84.516 4.0696 114.714 86.5183 135.869 0 -0 0 7.12977 -11.8723 -7.51255 24.1431 -11.1772 -4.37441e-05 57.0012 1.34516 11.2069 -0 55.0709 -0 -3.64956 3.72687 -0.118802 -19.8261 13.9063 -7.73577e-05 -43.7106 -3.11361 26.2185 -180 -84.328 180 8.62798 1.93396 0.145901 -23.7049 4.57323 -6.55661 2.18831 -8.856 -35.4117 -0 -0 37.5578 4.99379e-06 -3.6563 -3.72932 0.238096 -5.70826e-07 -38.87 1.15892 5.14224 -4.03966 -0 -0 39.1628 1.93082e-06 -0.419894 24.4747 -0.174 -5.83363e-07 -45.2091 
-47.962 84.687 4.1914 120.072 86.3755 141.296 0 -0 0 6.98137 -11.7383 -7.41487 23.9877 -10.9946 3.7654e-05 57.1358 1.76596 11.4094 -0 54.5134 -0 -3.79905 3.73556 -0.123903 -19.9787 13.7408 -6.02457e-05 -44.7601 -3.25516 26.3664 -180 -86.7149 180 9.10013 2.32497 0.185002 -24.052 4.20077 -6.38157 2.38026 -9.16578 -34.4576 -0 -0 36.7871 5.97592e-06 -3.80609 -3.60676 0.239794 -3.24472e-06 -39.0927 1.31284 5.36322 -5.42533 -0 -0 40.7624 1.22582e-05 1.52264 23.4444 0.60591 -3.81384e-06 -45.3952 
-46.974 84.884 4.3002 123.344 86.2355 144.679 0 -0 0 6.71084 -11.5035 -7.34355 23.8018 -10.8315 -4.48102e-05 57.2818 2.14172 11.7176 -0 54.1038 -0 -3.86234 3.76848 -0.127101 -20.1327 13.6022 -1.15162e-05 -45.6829 -3.36443 26.4855 180 -89.0994 180 9.4371 2.64679 0.218496 -24.2813 3.89235 -6.17552 2.46733 -9.32873 -33.5254 -0 -0 35.9699 2.28363e-07 -4.01006 -3.3684 0.236005 3.33118e-07 -38.995 1.32239 5.58787 -6.87273 -0 -0 42.1979 -1.72736e-05 3.42316 22.2906 1.2998 6.43523e-06 -45.5336 
-46 85.102 4.3956 124.807 86.1029 146.283 0 -0 0 6.33288 -11.1767 -7.29073 23.5838 -10.6752 -9.93173e-06 57.4347 2.4795 12.1279 -0 53.8356 -0 -3.84083 3.82557 -0.1283 -20.2932 13.4908 -2.99788e-05 -46.4742 -3.41901 26.5513 -1.15537e-05 -88.5979 1.12714e-05 9.64129 2.87872 0.242801 -24.4073 3.65629 -5.96029 2.45266 -9.3373 -32.6252 -0 -0 35.1508 1.68926e-06 -4.24978 -3.02768 0.224905 4.1748e-07 -38.7515 1.19726 5.81772 -8.37094 -0 -0 43.4693 -8.16653e-06 5.21072 21.0307 1.87452 7.1551e-06 -45.3361 
-45.038 85.339 4.4777 124.769 86.0373 146.419 0 -0 0 5.86662 -10.7716 -7.2457 23.3372 -10.5216 8.83277e-05 57.5814 2.79964 12.644 -0 53.6867 -0 -3.74158 3.90477 -0.127598 -20.4639 13.4065 0.000162439 -47.1369 -3.40486 26.5478 -4.24771e-06 -86.3604 3.98616e-06 9.72647 3.01114 0.256302 -24.4358 3.49687 -5.75683 2.34884 -9.20475 -31.7611 -0 -0 34.3561 1.06797e-06 -4.49553 -2.59248 0.203802 9.6737e-07 -38.5555 0.951941 6.04754 -9.90613 -0 -0 44.5757 3.47432e-05 6.83813 19.7078 2.31572 -1.53977e-05 -44.7409 
-44.085 85.594 4.547 123.568 86.0054 145.41 0 -0 0 5.33356 -10.3089 -7.19605 23.0654 -10.3753 0.000111751 57.7076 3.13411 13.2782 -0 53.6326 -0 -3.57796 4.00302 -0.125104 -20.6484 13.3587 -3.12292e-05 -47.6738 -3.32202 26.4655 2.86542e-06 -84.2622 -3.16767e-06 9.71836 3.0444 0.258895 -24.3785 3.41302 -5.58447 2.17508 -8.96178 -30.9255 -0 -0 33.5915 3.24719e-07 -4.71191 -2.06521 0.170204 1.96602e-06 -38.5861 0.606617 6.26683 -11.4648 -0 -0 45.5122 -3.04655e-05 8.28407 18.3785 2.62851 1.44626e-05 -43.9085 
-43.139 85.865 4.6054 121.5 86.0156 143.538 0 -0 0 4.76003 -9.81091 -7.13159 22.7729 -10.2194 -2.85906e-05 57.8066 3.47955 13.9987 -4.60015e-07 53.6695 -9.093e-07 -3.34557 4.10769 -0.119999 -20.8458 13.3349 0.000107167 -48.0973 -3.15314 26.2937 -2.40515e-06 -82.3213 2.10261e-06 9.64632 2.98789 0.252204 -24.2427 3.40029 -5.45488 1.95838 -8.64491 -30.109 -0 -0 32.8473 -5.31672e-07 -4.87028 -1.44198 0.122895 -1.22308e-06 -38.9833 0.188629 6.47079 -13.0353 -0 -0 46.2885 9.27105e-05 9.53336 17.0643 2.82122 -7.65265e-06 -42.6592 
-42.195 86.151 4.655 118.861 86.0598 141.094 0 -0 0 4.16722 -9.30029 -7.04067 22.4642 -10.0669 3.67417e-05 57.8657 3.86773 14.8174 -0 53.7762 -0 -3.05996 4.21241 -0.112599 -21.056 13.3441 9.97392e-05 -48.4173 -2.91132 26.0408 0 -80.5445 0 9.54241 2.85882 0.238698 -24.0343 3.44985 -5.37724 1.72542 -8.29952 -29.2963 -0 -0 32.1041 2.56677e-07 -4.94558 -0.721903 0.0624995 -6.78749e-07 -39.8034 -0.278016 6.64739 -14.6054 -0 -0 46.9051 8.22505e-05 10.5992 15.8061 2.91781 2.69506e-05 -41.2283 
-41.251 86.448 4.6985 115.946 86.1223 138.359 0 -0 0 3.57604 -8.79646 -6.91742 22.1459 -9.89889 -1.49757e-05 57.8805 4.27717 15.6838 -0 53.964 -0 -2.71307 4.30171 -0.101898 -21.274 13.3735 7.69166e-05 -48.6474 -2.58837 25.7093 5.18534e-07 -78.9532 -1.10437e-06 9.4349 2.67797 0.221001 -23.757 3.55046 -5.35211 1.50226 -7.96401 -28.4685 -0 -0 31.3295 -6.70906e-09 -4.93008 0.100101 -0.00859999 -2.44034e-08 -41.0628 -0.768901 6.7887 -16.163 -0 -0 47.3658 2.543e-05 11.4968 14.6096 2.93678 3.17545e-06 -39.5942 
-40.303 86.754 4.7382 113.026 86.2188 135.601 0 -0 0 3.00009 -8.31478 -6.75679 21.824 -9.73568 3.62815e-05 57.8422 4.73092 16.6102 -0 54.2188 -0 -2.32248 4.36932 -0.0885994 -21.4937 13.43 0.000111617 -48.7992 -2.2051 25.3269 4.26332e-07 -77.5332 -1.01296e-06 9.34567 2.46887 0.201793 -23.4177 3.68817 -5.37895 1.31008 -7.6737 -27.6139 -0 -0 30.5006 4.48504e-08 -4.82613 1.02031 -0.0860996 3.07988e-07 -42.6768 -1.26639 6.88311 -17.698 -0 -0 47.6708 -0.000119845 12.2535 13.4843 2.89941 2.0874e-06 -37.9316 
-39.348 87.065 4.7764 110.359 86.3058 133.069 0 -0 0 2.44784 -7.86357 -6.5607 21.5057 -9.57509 5.19934e-05 57.7467 5.21767 17.5646 -4.76945e-07 54.5473 -9.25111e-07 -1.89255 4.40628 -0.0728023 -21.7055 13.5088 -4.86724e-06 -48.8856 -1.76873 24.9119 -1.00188e-06 -76.294 7.86898e-07 9.28671 2.25306 0.183002 -23.0182 3.84892 -5.45011 1.16402 -7.45229 -26.7206 -0 -0 29.5979 -2.53313e-06 -4.65019 2.03245 -0.165294 1.20043e-06 -44.5335 -1.75763 6.92047 -19.2034 -0 -0 47.8203 -1.13702e-05 12.8957 12.4203 2.81907 -1.34596e-05 -36.3104 
